<?xml version="1.0" encoding="UTF-8" standalone="no"?>
<svg
   viewBox="0 0 32 32"
   version="1.1"
   id="svg4"
   sodipodi:docname="brightscript.svg"
   inkscape:version="1.1.2 (b8e25be833, 2022-02-05)"
   xmlns:inkscape="http://www.inkscape.org/namespaces/inkscape"
   xmlns:sodipodi="http://sodipodi.sourceforge.net/DTD/sodipodi-0.dtd"
   xmlns="http://www.w3.org/2000/svg"
   xmlns:svg="http://www.w3.org/2000/svg">
  <defs
     id="defs8" />
  <sodipodi:namedview
     id="namedview6"
     pagecolor="#ffffff"
     bordercolor="#666666"
     borderopacity="1.0"
     inkscape:pageshadow="2"
     inkscape:pageopacity="0.0"
     inkscape:pagecheckerboard="0"
     showgrid="false"
     inkscape:zoom="26.09375"
     inkscape:cx="16"
     inkscape:cy="16"
     inkscape:window-width="1920"
     inkscape:window-height="1018"
     inkscape:window-x="1913"
     inkscape:window-y="-6"
     inkscape:window-maximized="1"
     inkscape:current-layer="svg4">
    <inkscape:grid
       type="xygrid"
       id="grid1039" />
  </sodipodi:namedview>
  <g
     aria-label="brs"
     transform="scale(0.93359572,1.0711274)"
     id="text4146-1-5"
     style="font-weight:bold;font-size:19.0314px;line-height:1.25;font-family:Roboto;-inkscape-font-specification:'Roboto, Bold';fill:#5499b8;stroke-width:0.951571">
    <path
       d="m 17.280135,15.927403 q 0,2.416096 -1.031487,3.772827 -1.031487,1.347438 -2.880729,1.347438 -1.635511,0 -2.611242,-1.254511 l -0.120805,1.068657 H 8.2197762 V 6.588264 H 10.90536 v 5.120265 q 0.929267,-1.087244 2.443973,-1.087244 1.83995,0 2.88073,1.356731 1.050072,1.347438 1.050072,3.800705 z m -2.685583,-0.195146 q 0,-1.523999 -0.483219,-2.220949 -0.483219,-0.706244 -1.440365,-0.706244 -1.282389,0 -1.765608,1.050073 v 3.967972 q 0.492511,1.059365 1.784193,1.059365 1.300975,0 1.709853,-1.282389 0.195146,-0.613316 0.195146,-1.867828 z"
       style="fill:#9f75c0"
       id="path848" />
    <path
       d="m 24.584179,13.325454 q -0.548268,-0.07434 -0.966438,-0.07434 -1.523999,0 -1.997926,1.031487 v 6.579214 H 18.934232 V 10.807139 h 2.5369 l 0.07434,1.198755 q 0.808463,-1.384609 2.239535,-1.384609 0.446048,0 0.836341,0.120805 z"
       style="fill:#9f75c0"
       id="path850" />
    <path
       d="m 31.321368,18.083304 q 0,-0.492511 -0.492511,-0.771292 -0.48322,-0.288073 -1.56117,-0.511097 -3.586973,-0.752707 -3.586973,-3.047998 0,-1.338145 1.105829,-2.230242 1.115121,-0.90139 2.908607,-0.90139 1.914291,0 3.057291,0.90139 1.152291,0.90139 1.152291,2.341754 h -2.685583 q 0,-0.576146 -0.371707,-0.947853 -0.371707,-0.380999 -1.161585,-0.380999 -0.678365,0 -1.050072,0.306658 -0.371707,0.306658 -0.371707,0.780585 0,0.446048 0.41817,0.724829 0.427464,0.269487 1.431073,0.473926 1.003609,0.195146 1.691267,0.446048 2.128022,0.780585 2.128022,2.704169 0,1.375316 -1.180169,2.230242 -1.18017,0.845634 -3.047998,0.845634 -1.263804,0 -2.248828,-0.446048 -0.975731,-0.455342 -1.533291,-1.235926 -0.557561,-0.789878 -0.557561,-1.70056 h 2.546193 q 0.03717,0.715536 0.529683,1.096536 0.492512,0.380999 1.31956,0.380999 0.771292,0 1.161584,-0.288073 0.399585,-0.297365 0.399585,-0.771292 z"
       style="fill:#9f75c0"
       id="path852" />
  </g>
</svg>
