<?xml version="1.0" encoding="UTF-8" standalone="no"?>
<svg
   viewBox="0 0 32 32"
   version="1.1"
   id="svg4"
   sodipodi:docname="brighterscript.svg"
   inkscape:version="1.1.2 (b8e25be833, 2022-02-05)"
   xmlns:inkscape="http://www.inkscape.org/namespaces/inkscape"
   xmlns:sodipodi="http://sodipodi.sourceforge.net/DTD/sodipodi-0.dtd"
   xmlns="http://www.w3.org/2000/svg"
   xmlns:svg="http://www.w3.org/2000/svg">
  <defs
     id="defs8" />
  <sodipodi:namedview
     id="namedview6"
     pagecolor="#ffffff"
     bordercolor="#666666"
     borderopacity="1.0"
     inkscape:pageshadow="2"
     inkscape:pageopacity="0.0"
     inkscape:pagecheckerboard="0"
     showgrid="false"
     inkscape:zoom="26.09375"
     inkscape:cx="16"
     inkscape:cy="16"
     inkscape:window-width="1920"
     inkscape:window-height="1018"
     inkscape:window-x="1913"
     inkscape:window-y="-6"
     inkscape:window-maximized="1"
     inkscape:current-layer="text4146-1">
    <inkscape:grid
       type="xygrid"
       id="grid1039" />
  </sodipodi:namedview>
  <g
     aria-label="BS"
     transform="scale(1.0095029,0.99058655)"
     id="text4146-1"
     style="font-weight:bold;font-size:20.5788px;line-height:1.25;font-family:Roboto;-inkscape-font-specification:'Roboto, Bold';fill:#5499b8;stroke-width:1.02894">
    <path
       d="M 7.5829048,23.518963 V 8.8887221 h 5.1246032 q 2.662785,0 4.039394,1.0249207 1.376609,1.0148722 1.376609,2.9843282 0,1.075162 -0.552653,1.899118 -0.552654,0.813907 -1.537381,1.19574 1.125403,0.281351 1.76849,1.135452 0.653136,0.8541 0.653136,2.090034 0,2.110131 -1.346465,3.195341 -1.346464,1.08521 -3.838428,1.105307 z m 3.0144722,-6.370586 v 3.948959 h 2.582399 q 1.065113,0 1.65796,-0.502412 0.602894,-0.51246 0.602894,-1.406754 0,-2.009648 -2.079986,-2.039793 z m 0,-2.130227 h 2.23071 q 2.280951,-0.04019 2.280951,-1.818732 0,-0.994776 -0.582798,-1.42685 -0.57275,-0.442123 -1.818732,-0.442123 h -2.110131 z"
       id="path823" />
    <path
       d="m 28.302381,19.680534 q 0,-0.8541 -0.602895,-1.306271 -0.602895,-0.462219 -2.17042,-0.964631 -1.567526,-0.512461 -2.481916,-1.004825 -2.491964,-1.346464 -2.491964,-3.627415 0,-1.185693 0.663184,-2.110131 0.673232,-0.9344866 1.919214,-1.4569952 1.25603,-0.5225086 2.813508,-0.5225086 1.567526,0 2.793411,0.5727499 1.225886,0.5627015 1.899118,1.5976709 0.68328,1.034969 0.68328,2.351288 h -3.014472 q 0,-1.004824 -0.63304,-1.557477 -0.633039,-0.562702 -1.778538,-0.562702 -1.105307,0 -1.71825,0.472268 -0.612943,0.462219 -0.612943,1.225885 0,0.713425 0.713426,1.195741 0.723473,0.482316 2.120179,0.904342 2.57235,0.773714 3.747994,1.919214 1.175644,1.1455 1.175644,2.853701 0,1.899118 -1.436898,2.984328 -1.436899,1.075162 -3.868573,1.075162 -1.688105,0 -3.074763,-0.612943 -1.386657,-0.622991 -2.120179,-1.698153 -0.723473,-1.075162 -0.723473,-2.491964 h 3.024521 q 0,2.421626 2.893894,2.421626 1.075161,0 1.678056,-0.432074 0.602895,-0.442123 0.602895,-1.225886 z"
       id="path825" />
  </g>
</svg>
