<?xml version="1.0" encoding="UTF-8" standalone="no"?>
<svg
   width="32"
   height="32"
   version="1.1"
   id="svg1"
   sodipodi:docname="brsconfig.svg"
   inkscape:version="1.4.2 (f4327f4, 2025-05-13)"
   xmlns:inkscape="http://www.inkscape.org/namespaces/inkscape"
   xmlns:sodipodi="http://sodipodi.sourceforge.net/DTD/sodipodi-0.dtd"
   xmlns="http://www.w3.org/2000/svg"
   xmlns:svg="http://www.w3.org/2000/svg">
  <defs
     id="defs1" />
  <sodipodi:namedview
     id="namedview1"
     pagecolor="#ffffff"
     bordercolor="#000000"
     borderopacity="0.25"
     inkscape:showpageshadow="2"
     inkscape:pageopacity="0.0"
     inkscape:pagecheckerboard="0"
     inkscape:deskcolor="#d1d1d1"
     inkscape:zoom="25.25"
     inkscape:cx="16.574257"
     inkscape:cy="11.881188"
     inkscape:window-width="1920"
     inkscape:window-height="1058"
     inkscape:window-x="1913"
     inkscape:window-y="-6"
     inkscape:window-maximized="1"
     inkscape:current-layer="svg1" />
  <g
     inkscape:groupmode="layer"
     id="layer1"
     inkscape:label="Composite"
     style="display:none">
    <path
       d="M 8.9121286,4.980198 H 28.196782 c 0.760366,0 1.377476,0.6171089 1.377476,1.3774753 V 25.642326 c 0,0.760366 -0.61711,1.377476 -1.377476,1.377476 H 8.9121286 c -0.7607586,0 -1.3774749,-0.616717 -1.3774745,-1.377476 V 6.3576733 c 0,-0.7603664 0.6171085,-1.3774753 1.3774745,-1.3774753 z"
       fill="#529bba"
       id="path1"
       style="display:inline;fill:#9f75c0;fill-opacity:1;stroke-width:1.22443"
       sodipodi:nodetypes="sssssccss"
       inkscape:label="BG" />
    <text
       xml:space="preserve"
       style="font-size:13.9887px;text-align:start;writing-mode:lr-tb;direction:ltr;text-anchor:start;display:inline;fill:#000000;fill-opacity:1;stroke-width:1.16571"
       x="27.517021"
       y="21.010916"
       id="text1"
       transform="scale(0.81421989,1.2281695)"
       inkscape:label="S"><tspan
         sodipodi:role="line"
         id="tspan1"
         x="27.517021"
         y="21.010916"
         style="font-weight:bold;fill:#000000;fill-opacity:1;stroke-width:1.16571">S</tspan></text>
    <text
       xml:space="preserve"
       style="font-size:13.9887px;text-align:start;writing-mode:lr-tb;direction:ltr;text-anchor:start;display:inline;fill:#000000;fill-opacity:1;stroke-width:1.16571"
       x="19.052435"
       y="21.010916"
       id="text3-8"
       transform="scale(0.81421989,1.2281695)"
       inkscape:label="R"><tspan
         sodipodi:role="line"
         id="tspan3-8"
         x="19.052435"
         y="21.010916"
         style="font-weight:bold;fill:#000000;fill-opacity:1;stroke-width:1.16571">R</tspan></text>
    <text
       xml:space="preserve"
       style="font-size:14.378px;text-align:start;writing-mode:lr-tb;direction:ltr;text-anchor:start;display:inline;fill:#000000;fill-opacity:1;stroke-width:1.19816"
       x="10.785192"
       y="21.155399"
       id="text3"
       transform="scale(0.81428956,1.2280644)"
       inkscape:label="B"><tspan
         sodipodi:role="line"
         id="tspan3"
         x="10.785192"
         y="21.155399"
         style="font-weight:bold;fill:#000000;fill-opacity:1;stroke-width:1.19816">B</tspan></text>
  </g>
  <path
     id="path1-8"
     style="display:inline;fill:#9f75c0;fill-opacity:1;stroke-width:1.22443"
     inkscape:label="BG"
     d="m 8.9611113,5.0396041 c -0.760366,-1e-7 -1.376953,0.6165867 -1.3769532,1.3769531 V 25.701713 c -4e-7,0.760759 0.6161946,1.376953 1.3769532,1.376953 H 28.246268 c 0.760366,0 1.376953,-0.616587 1.376953,-1.376953 V 6.4165572 c 0,-0.7603664 -0.616587,-1.3769531 -1.376953,-1.3769531 z M 25.824393,13.426323 c 0.425222,-10e-7 0.829321,0.07376 1.208984,0.222656 0.387256,0.148897 0.789402,0.359877 1.207031,0.634765 l -0.558594,2.027344 c -0.372069,-0.229073 -0.705816,-0.40526 -1.001953,-0.53125 -0.296136,-0.12599 -0.600786,-0.189453 -0.912109,-0.189453 -0.32651,0 -0.577308,0.114677 -0.751953,0.34375 -0.174645,0.229073 -0.261719,0.526061 -0.261719,0.892578 0,0.435239 0.130501,0.77927 0.388672,1.03125 0.258171,0.251981 0.641643,0.561217 1.150391,0.927734 0.417628,0.297796 0.77005,0.607032 1.058593,0.927735 0.296137,0.320702 0.524136,0.699526 0.683594,1.134765 0.159458,0.43524 0.238281,0.971877 0.238281,1.613282 0,1.088098 -0.261222,1.960422 -0.785156,2.613281 -0.516341,0.641405 -1.252235,0.960938 -2.208984,0.960937 -0.858038,0 -1.624982,-0.245773 -2.300781,-0.738281 v -2.421875 c 0.387255,0.251981 0.785276,0.485506 1.195312,0.703125 0.417629,0.206166 0.832152,0.310547 1.242188,0.310547 0.425222,0 0.723792,-0.120801 0.898437,-0.361328 0.182238,-0.251981 0.273437,-0.567342 0.273437,-0.945312 0,-0.309249 -0.07253,-0.573397 -0.216796,-0.791016 -0.136679,-0.21762 -0.32125,-0.416351 -0.556641,-0.59961 -0.235391,-0.194712 -0.504864,-0.401521 -0.808594,-0.61914 -0.189831,-0.137444 -0.39503,-0.29721 -0.615234,-0.480469 -0.220204,-0.194712 -0.433654,-0.43019 -0.638672,-0.705078 -0.197425,-0.286342 -0.361149,-0.630372 -0.490234,-1.03125 -0.129086,-0.400878 -0.19336,-0.88213 -0.19336,-1.443359 0,-1.099552 0.246673,-1.95155 0.740235,-2.558594 0.493561,-0.618498 1.16518,-0.927734 2.015625,-0.927734 z m -15.998047,0.0059 h 2.705078 c 1.14737,0 1.982908,0.259402 2.505859,0.777344 0.522951,0.50617 0.783203,1.294036 0.783203,2.365234 0,0.788684 -0.140886,1.419769 -0.421875,1.890625 -0.273183,0.459085 -0.603878,0.753327 -0.99414,0.882812 v 0.08789 c 0.273183,0.0824 0.533435,0.229521 0.783203,0.441406 0.249767,0.211886 0.45327,0.517741 0.609375,0.917969 0.156105,0.400228 0.234375,0.928692 0.234375,1.587891 0,1.153598 -0.27786,2.055697 -0.832031,2.703125 -0.546367,0.635656 -1.293855,0.953125 -2.246094,0.953125 H 9.826346 Z m 6.703125,0.166015 h 2.49414 c 2.118518,0 3.177735,1.189904 3.177735,3.572266 0,0.836118 -0.138972,1.518053 -0.419922,2.044922 -0.28095,0.526869 -0.631199,0.938533 -1.048828,1.236328 l 2.3125,5.41211 h -1.994141 l -1.810547,-4.707032 h -0.966797 v 4.707032 h -1.74414 z m -4.91211,1.935547 v 2.949219 h 1.007813 c 0.50734,0 0.857603,-0.141314 1.052734,-0.423828 0.202936,-0.282514 0.304688,-0.654196 0.304688,-1.113281 0,-0.482628 -0.117406,-0.834937 -0.351563,-1.058594 -0.234157,-0.235428 -0.59616,-0.353516 -1.08789,-0.353516 z m 6.65625,0.107422 v 3.488281 h 0.716797 c 0.463189,0 0.819735,-0.143345 1.070313,-0.429687 0.250577,-0.286342 0.376953,-0.755344 0.376953,-1.408203 0,-0.549776 -0.118125,-0.963393 -0.353516,-1.238281 -0.227797,-0.274888 -0.592595,-0.41211 -1.09375,-0.41211 z m -6.65625,4.871094 v 3.390625 h 1.136719 c 0.530756,0 0.896673,-0.158736 1.09961,-0.476562 0.210739,-0.3296 0.316406,-0.747736 0.316406,-1.253907 0,-0.459085 -0.105666,-0.848187 -0.316406,-1.166015 -0.210742,-0.3296 -0.596227,-0.494141 -1.158204,-0.494141 z" />
</svg>
