<?xml version="1.0" encoding="UTF-8" standalone="no"?>
<svg
   width="32"
   height="32"
   version="1.1"
   id="svg1"
   sodipodi:docname="bsconfig.svg"
   inkscape:version="1.4.2 (f4327f4, 2025-05-13)"
   xmlns:inkscape="http://www.inkscape.org/namespaces/inkscape"
   xmlns:sodipodi="http://sodipodi.sourceforge.net/DTD/sodipodi-0.dtd"
   xmlns="http://www.w3.org/2000/svg"
   xmlns:svg="http://www.w3.org/2000/svg">
  <defs
     id="defs1" />
  <sodipodi:namedview
     id="namedview1"
     pagecolor="#ffffff"
     bordercolor="#000000"
     borderopacity="0.25"
     inkscape:showpageshadow="2"
     inkscape:pageopacity="0.0"
     inkscape:pagecheckerboard="0"
     inkscape:deskcolor="#d1d1d1"
     inkscape:zoom="25.25"
     inkscape:cx="16.574257"
     inkscape:cy="11.881188"
     inkscape:window-width="1920"
     inkscape:window-height="1058"
     inkscape:window-x="1913"
     inkscape:window-y="-6"
     inkscape:window-maximized="1"
     inkscape:current-layer="layer1" />
  <path
     id="path1-7"
     style="display:inline;fill:#529bba;fill-opacity:1;stroke:none;stroke-width:1.22443;stroke-opacity:1"
     inkscape:label="Whole thing"
     d="m 8.9017054,4.980198 c -0.760366,-10e-8 -1.376953,0.6165867 -1.376953,1.3769531 V 25.642307 c 0,0.760759 0.616195,1.376953 1.376953,1.376953 H 28.186862 c 0.760366,0 1.376953,-0.616587 1.376953,-1.376953 V 6.3571511 c 0,-0.7603664 -0.616587,-1.3769531 -1.376953,-1.3769531 z M 25.202487,14.23801 c 0.522898,0 1.019455,0.06842 1.486328,0.207031 0.47621,0.138613 0.970814,0.335898 1.484375,0.591797 l -0.6875,1.886719 c -0.457536,-0.213249 -0.868261,-0.376853 -1.232422,-0.49414 -0.364161,-0.117288 -0.736305,-0.177735 -1.119141,-0.177735 -0.401511,0 -0.711019,0.107063 -0.925781,0.320313 -0.214762,0.213249 -0.322266,0.490832 -0.322266,0.832031 0,0.405174 0.159089,0.72441 0.476563,0.958984 0.317474,0.234575 0.788452,0.524035 1.414062,0.865235 0.513561,0.277224 0.947911,0.564732 1.302735,0.863281 0.364161,0.298549 0.64571,0.649513 0.841797,1.054687 0.196086,0.405174 0.292968,0.906808 0.292968,1.503907 0,1.012935 -0.322511,1.823879 -0.966797,2.43164 -0.634947,0.597099 -1.540276,0.894531 -2.716796,0.894531 -1.055134,0 -1.997091,-0.229013 -2.828125,-0.6875 v -2.255859 c 0.47621,0.234575 0.96648,0.453663 1.470703,0.65625 0.51356,0.191925 1.021167,0.289063 1.52539,0.289063 0.522898,0 0.892661,-0.112026 1.107422,-0.335938 0.224099,-0.234574 0.335938,-0.528998 0.335938,-0.880859 0,-0.287887 -0.08821,-0.531788 -0.265625,-0.734375 -0.168075,-0.202587 -0.398039,-0.389948 -0.6875,-0.560547 -0.289462,-0.181262 -0.620642,-0.373585 -0.994141,-0.576172 -0.233436,-0.12795 -0.485073,-0.276666 -0.755859,-0.447266 -0.270787,-0.181262 -0.533045,-0.40035 -0.785157,-0.65625 -0.242774,-0.266561 -0.442825,-0.585797 -0.601562,-0.958984 -0.158737,-0.373187 -0.238281,-0.821289 -0.238281,-1.34375 0,-1.023598 0.303221,-1.817701 0.910156,-2.382813 0.606935,-0.575773 1.43272,-0.863281 2.478516,-0.863281 z m -11.197266,0.0059 h 3.326172 c 1.410934,0 2.436999,0.24049 3.080078,0.722656 0.643079,0.471208 0.964844,1.205917 0.964844,2.203125 0,0.734208 -0.172044,1.319479 -0.517578,1.757812 -0.335937,0.427375 -0.7447,0.701724 -1.22461,0.822266 v 0.08203 c 0.335937,0.07671 0.657702,0.21486 0.964844,0.41211 0.307142,0.197249 0.556083,0.480932 0.748047,0.853515 0.191964,0.372583 0.289062,0.866803 0.289062,1.480469 0,1.073916 -0.341966,1.910964 -1.023437,2.513672 -0.671873,0.591749 -1.592693,0.888672 -2.763672,0.888672 h -3.84375 z m 2.203125,1.955078 v 2.746093 h 1.236328 c 0.623882,0 1.05692,-0.131531 1.296875,-0.394531 0.249553,-0.263 0.375,-0.607781 0.375,-1.035156 0,-0.449291 -0.145648,-0.77812 -0.433594,-0.986328 -0.287945,-0.219167 -0.733204,-0.330078 -1.33789,-0.330078 z m 0,4.636719 v 3.15625 h 1.396484 c 0.652677,0 1.10201,-0.149438 1.351563,-0.445313 0.259151,-0.306833 0.390625,-0.694808 0.390625,-1.166016 0,-0.427374 -0.131474,-0.790062 -0.390625,-1.085937 -0.259151,-0.306833 -0.732759,-0.458986 -1.423828,-0.458984 z"
     sodipodi:nodetypes="sscssssssscccsssssccsscscccscscccccsscscscscccssscsccccscscscccscscsc" />
  <g
     inkscape:groupmode="layer"
     id="layer1"
     inkscape:label="Composite"
     style="display:none">
    <path
       d="M 8.9121286,4.980198 H 28.196782 c 0.760366,0 1.377476,0.6171089 1.377476,1.3774753 V 25.642326 c 0,0.760366 -0.61711,1.377476 -1.377476,1.377476 H 8.9121286 c -0.7607586,0 -1.3774749,-0.616717 -1.3774745,-1.377476 V 6.3576733 c 0,-0.7603664 0.6171085,-1.3774753 1.3774745,-1.3774753 z"
       fill="#529bba"
       id="path1"
       style="display:inline;stroke-width:1.22443"
       sodipodi:nodetypes="sssssccss"
       inkscape:label="BG" />
    <text
       xml:space="preserve"
       style="font-size:14.967px;text-align:start;writing-mode:lr-tb;direction:ltr;text-anchor:start;display:inline;fill:#000000;fill-opacity:1;stroke-width:1.24724"
       x="22.513172"
       y="24.159748"
       id="text3-8"
       transform="scale(0.93580525,1.0685984)"
       inkscape:label="S"><tspan
         sodipodi:role="line"
         id="tspan3-8"
         x="22.513172"
         y="24.159748"
         style="font-weight:bold;fill:#000000;fill-opacity:1;stroke-width:1.24724">S</tspan></text>
    <text
       xml:space="preserve"
       style="font-size:15.3836px;text-align:start;writing-mode:lr-tb;direction:ltr;text-anchor:start;display:inline;fill:#000000;fill-opacity:1;stroke-width:1.28196"
       x="13.667602"
       y="24.314482"
       id="text3"
       transform="scale(0.93588531,1.068507)"
       inkscape:label="B"><tspan
         sodipodi:role="line"
         id="tspan3"
         x="13.667602"
         y="24.314482"
         style="font-weight:bold;fill:#000000;fill-opacity:1;stroke-width:1.28196">B</tspan></text>
  </g>
</svg>
